<svg width="606" height="512" viewBox="0 0 606 512" fill="none" xmlns="http://www.w3.org/2000/svg">
<path fill-rule="evenodd" clip-rule="evenodd" d="M0.414062 0.972656H82.4462V176.818H200.177V75.2468H335.379V0.972656H417.411V75.2468H469.061C544.15 75.2468 605.021 133.796 605.021 206.02C605.021 278.244 544.15 336.793 469.061 336.793C467.535 336.793 466.016 336.769 464.503 336.721V336.793H417.411V438.365H335.379V336.793H282.969V512.004H200.177V234.587H82.4462V438.365H0.414062V0.972656ZM213.09 234.587V503.751H270.057V327.906H406.777C409.004 328.027 431.47 327.953 441.578 327.919C444.013 327.911 445.731 327.906 446.276 327.906C517.726 327.906 536.414 277.921 538.057 215.081H537.677C533.429 255.739 502.798 287.277 465.642 287.277C465.455 287.277 465.268 287.276 465.081 287.275C464.888 287.273 464.696 287.271 464.503 287.267V287.277H270.057V234.587H213.09ZM538.153 199.842H538.017C535.492 157.199 504.054 123.493 465.642 123.493L464.938 123.493C462.967 123.491 457.604 123.488 457.287 123.493H270.057V176.818H213.09V84.1343H451.591C524.607 84.1343 537.497 135.133 538.153 199.842ZM346.772 278.39V226.969H71.0528V430.747H11.0479V8.59051H71.0528V184.436H346.772V132.381H406.777V278.39H346.772ZM282.969 234.587V278.39H335.379V234.587H282.969ZM444.017 278.38L462.984 278.39V278.38C500.003 277.726 529.825 245.296 529.825 205.385C529.825 165.475 500.003 133.044 462.984 132.391V132.381L444.017 132.391V278.38ZM282.969 176.818H335.379V132.381H282.969V176.818ZM346.772 75.2468H406.777V8.59051H346.772V75.2468ZM406.777 336.793H346.772V430.747H406.777V336.793Z" fill="#73FBFD"/>
</svg>
